<?xml version="1.0" standalone="no"?>
<!DOCTYPE svg PUBLIC "-//W3C//DTD SVG 20010904//EN"
 "http://www.w3.org/TR/2001/REC-SVG-20010904/DTD/svg10.dtd">
<svg version="1.0" xmlns="http://www.w3.org/2000/svg"
 width="1200.000000pt" height="375.000000pt" viewBox="0 0 1200.000000 375.000000"
 preserveAspectRatio="xMidYMid meet">

<g transform="translate(0.000000,375.000000) scale(0.100000,-0.100000)"
fill="#000000" stroke="none">
<path d="M1670 3739 c-191 -21 -369 -144 -484 -334 -106 -174 -656 -1279 -928
-1864 -220 -473 -249 -557 -249 -736 -1 -140 18 -222 81 -351 99 -204 287
-358 513 -421 85 -24 297 -23 387 1 144 38 249 87 381 177 95 65 294 240 329
288 12 17 26 31 31 31 6 0 56 -45 112 -101 243 -242 477 -373 726 -409 391
-58 768 196 872 586 33 121 37 288 10 391 -20 80 -79 224 -168 413 -25 52 -97
205 -160 340 -278 592 -757 1542 -846 1678 -148 228 -361 337 -607 311z m225
-260 c62 -23 149 -97 198 -168 112 -164 1037 -2065 1117 -2296 119 -347 -72
-698 -420 -771 -243 -51 -503 62 -794 347 l-108 107 75 99 c115 151 193 276
263 418 164 335 188 608 72 828 -19 37 -63 93 -108 138 -122 123 -267 182
-450 182 -182 0 -327 -59 -451 -182 -127 -126 -179 -256 -179 -446 0 -108 27
-244 74 -368 63 -167 212 -421 353 -601 l54 -69 -98 -100 c-186 -188 -368
-305 -543 -348 -157 -40 -329 -13 -459 70 -112 72 -212 211 -242 336 -17 76
-15 220 6 295 25 89 60 169 258 590 183 390 777 1585 851 1710 82 141 171 216
291 247 65 16 169 9 240 -18z m-85 -1339 c284 -45 398 -307 284 -650 -29 -85
-105 -241 -167 -339 -56 -90 -179 -261 -186 -261 -9 0 -115 144 -181 245 -68
104 -151 278 -185 385 -100 316 21 574 289 619 71 12 73 12 146 1z"/>
<path d="M6020 3041 c-110 -34 -174 -119 -174 -231 0 -175 174 -289 329 -216
127 59 178 202 116 324 -47 93 -177 151 -271 123z"/>
<path d="M7480 2005 l0 -1035 163 0 c113 0 167 4 175 12 7 7 12 31 12 55 l0
43 52 -40 c109 -87 202 -115 358 -107 391 18 680 332 680 738 0 285 -150 534
-394 655 -119 58 -210 77 -346 71 -125 -5 -191 -27 -280 -93 -33 -24 -62 -44
-65 -44 -3 0 -5 176 -5 390 l0 390 -175 0 -175 0 0 -1035z m761 65 c183 -34
311 -175 326 -362 15 -173 -61 -324 -197 -393 -173 -88 -362 -68 -490 51 l-50
47 0 255 0 255 44 42 c45 43 132 92 189 105 47 12 117 11 178 0z"/>
<path d="M10560 2005 l0 -1035 158 0 c110 0 162 4 170 12 7 7 12 31 12 55 0
24 3 43 6 43 4 0 24 -16 45 -35 157 -142 431 -153 674 -27 105 54 228 181 283
292 58 117 83 220 83 351 0 205 -63 375 -191 512 -133 142 -290 216 -479 225
-156 7 -267 -24 -358 -103 -23 -19 -44 -35 -47 -35 -3 0 -6 176 -6 390 l0 390
-175 0 -175 0 0 -1035z m756 64 c130 -24 240 -106 292 -217 25 -52 27 -67 27
-182 0 -114 -2 -130 -27 -182 -66 -142 -211 -227 -389 -228 -103 0 -225 52
-284 122 l-25 30 0 258 0 258 33 32 c45 45 96 76 164 99 66 23 123 26 209 10z"/>
<path d="M4771 2379 c-256 -67 -443 -255 -512 -516 -29 -109 -29 -287 0 -396
53 -201 192 -373 371 -460 237 -115 496 -100 650 40 l40 35 0 -30 c0 -17 4
-42 10 -56 l10 -26 165 0 165 0 0 701 0 700 -160 -3 c-103 -2 -163 -7 -171
-15 -6 -6 -14 -31 -16 -56 l-5 -44 -36 33 c-49 45 -116 80 -187 99 -83 21
-232 19 -324 -6z m414 -344 c29 -14 72 -43 94 -65 l41 -40 0 -264 0 -264 -55
-50 c-79 -72 -155 -96 -286 -90 -89 4 -107 9 -173 42 -89 44 -155 111 -188
194 -19 48 -23 76 -23 172 0 110 1 118 33 182 41 84 120 158 200 188 115 44
258 41 357 -5z"/>
<path d="M7065 2386 c-64 -20 -143 -64 -185 -103 l-40 -35 0 39 c0 74 -7 78
-189 81 l-161 3 0 -705 0 -706 175 0 175 0 0 493 0 493 33 30 c76 72 168 104
296 104 47 0 103 -4 124 -9 l37 -9 0 163 0 162 -37 7 c-62 10 -185 6 -228 -8z"/>
<path d="M9647 2385 c-69 -19 -146 -59 -195 -100 l-42 -37 0 41 c0 28 -7 48
-20 61 -18 18 -33 20 -165 20 l-145 0 0 -700 0 -700 175 0 175 0 0 489 0 489
41 37 c138 124 377 136 472 24 61 -70 61 -70 64 -581 l4 -468 175 0 175 0 -4
508 c-4 549 -4 549 -62 668 -51 105 -198 213 -340 249 -72 18 -241 18 -308 0z"/>
<path d="M5910 1670 l0 -700 175 0 175 0 0 700 0 700 -175 0 -175 0 0 -700z"/>
</g>
</svg>
